<svg xmlns="http://www.w3.org/2000/svg" viewBox="0 0 32 32" fill="none" role="img" aria-label="GMD Fences">
  <rect width="32" height="32" rx="6" fill="#0D1520"/>
  <g transform="translate(2.25,4.25) scale(0.492)">
<path fill-rule="evenodd" clip-rule="evenodd" d="M50.6802 2.83696C52.0214 3.41661 52.7488 4.66195 52.3214 6.12465C52.0123 7.18432 51.2439 7.83642 50.1391 7.99039C48.9343 8.15794 48.0068 7.65528 47.393 6.62731C46.6247 5.33669 47.0293 3.84682 48.3842 3.0181C48.9396 2.64624 49.9398 2.57831 50.6802 2.83696ZM51.8895 5.29593C51.8895 6.58655 51.0257 7.4515 49.739 7.4515C48.6206 7.50584 47.6295 6.54127 47.6295 5.3548C47.6249 4.02795 48.6933 3.2083 49.6936 3.20377C50.9257 3.19924 51.8895 4.12305 51.8895 5.29593Z" fill="#F4C430"/>
<path fill-rule="evenodd" clip-rule="evenodd" d="M23.0929 45.8707C24.7842 46.1062 26.471 46.31 28.2986 46.2511C30.5446 46.3236 32.8724 46.0066 35.182 45.5582C37.9599 45.0239 40.6241 44.1318 43.1611 42.8638C45.4707 41.709 47.612 40.3188 49.5079 38.5662C51.7993 36.4469 53.6361 34.0106 54.7682 31.0897C55.0864 30.27 55.3456 29.4232 55.5729 28.5719C56.0776 26.6925 56.0367 24.7679 55.8957 22.8569C55.7548 20.9912 55.1592 19.216 54.3726 17.5269C53.3088 15.2309 51.8221 13.2203 49.9898 11.4677C47.2256 8.8231 44.0067 6.89396 40.4332 5.53541C38.1463 4.66594 35.7867 4.06818 33.3589 3.7376C30.8401 3.39796 28.3259 3.17154 25.7753 3.42966C22.9474 3.71496 20.1559 4.13158 17.4462 5.02369C14.682 5.92939 12.0859 7.16567 9.68539 8.8231C7.74405 10.1635 6.00275 11.7168 4.52969 13.5644C2.85204 15.6702 1.58358 17.9933 0.937981 20.6153C0.506066 22.3678 0.201452 24.143 0.406043 25.968C0.637913 28.0284 1.1062 30.0255 1.97458 31.9139C2.92933 33.9925 4.21599 35.8492 5.8027 37.493C7.72586 39.481 9.91726 41.1113 12.3678 42.4064C13.7727 43.1446 15.2003 43.8193 16.7006 44.331C18.7783 45.042 20.9061 45.5628 23.0929 45.8707ZM18.5257 14.1539C18.5295 14.1537 18.5334 14.1534 18.5374 14.1531C18.4674 14.5486 18.379 14.9391 18.291 15.3281C18.0988 16.1775 17.9083 17.0195 17.9145 17.8891C18.0973 17.9523 18.2187 17.9659 18.3032 17.9148C18.3684 17.8675 18.4103 17.7771 18.4419 17.6356C18.5595 17.1055 18.672 16.5737 18.7846 16.0413C18.8547 15.7096 18.925 15.3772 18.9966 15.0453C19.0214 14.932 19.0509 14.8188 19.0803 14.7056C19.1157 14.5698 19.1511 14.4339 19.1784 14.2981C19.1973 14.1994 19.2345 14.1275 19.2926 14.078C19.3471 14.026 19.4227 13.9973 19.524 13.9856C19.8753 13.9469 20.2272 13.9029 20.5794 13.8588C21.2572 13.774 21.9364 13.6891 22.6156 13.6414C23.585 13.5751 24.5582 13.5345 25.5316 13.4939C26.0873 13.4707 26.6432 13.4475 27.1984 13.4195C27.403 13.4105 27.4712 13.4648 27.4712 13.6822C27.4712 14.7373 27.4894 15.797 27.5076 16.8521C27.5108 16.9934 27.5261 17.1346 27.5412 17.2742C27.5469 17.327 27.5526 17.3795 27.5576 17.4318C27.6488 17.3907 27.7343 17.3497 27.8327 17.3025C27.8823 17.2787 27.9358 17.253 27.9943 17.2253C27.997 17.1947 28.0012 17.1581 28.0059 17.1172L28.0061 17.1161C28.0175 17.0174 28.0318 16.894 28.0349 16.7706C28.0486 15.7517 28.0577 14.7328 28.0668 13.7139L28.067 13.7007C28.0695 13.5401 28.0705 13.4697 28.1286 13.4407C28.1691 13.4127 28.2436 13.4129 28.3805 13.415L28.5084 13.4175C30.5115 13.4573 32.5102 13.4971 34.5046 13.7365L34.6258 13.7508C35.0075 13.7958 35.3861 13.8405 35.7685 13.8814C35.9185 13.895 36.0004 13.9629 36.0322 14.1079C36.2322 14.9819 36.4323 15.8559 36.6369 16.7298C36.6419 16.7496 36.647 16.7694 36.6521 16.7893C36.6971 16.965 36.7429 17.1436 36.796 17.3186C36.8118 17.3657 36.8451 17.4085 36.8868 17.4621C36.9033 17.4833 36.9212 17.5063 36.9398 17.5318C36.9518 17.5028 36.9623 17.4774 36.9719 17.4541L36.9725 17.4526C36.9949 17.398 37.0131 17.354 37.0369 17.3004L37.0423 17.3101L37.046 17.3018C37.0475 17.2983 37.049 17.2949 37.0506 17.2914C37.096 17.3729 37.1324 17.4408 37.1688 17.5087C37.2169 17.5047 37.2509 17.4937 37.2744 17.4778C37.3282 17.4305 37.3098 17.3506 37.2933 17.2794C37.2892 17.2615 37.2852 17.2441 37.2825 17.228C37.1506 16.4446 37.0142 15.6657 36.8733 14.8868C36.8387 14.7032 36.7951 14.5233 36.7492 14.3344C36.7227 14.225 36.6954 14.1126 36.6687 13.9946C36.6741 13.9951 36.6794 13.9955 36.6847 13.9959L36.6823 13.9856C36.7067 13.9875 36.7298 13.9893 36.752 13.9909C36.833 13.997 36.901 14.0021 36.9688 14.0128C39.0465 14.3886 41.1197 14.8007 43.1565 15.3713C45.5707 16.0506 47.903 16.9336 50.0717 18.2061C51.4856 19.0349 52.7768 20.0085 53.8271 21.281C54.3999 21.9738 54.8 22.7527 55.0637 23.6041C55.0974 23.7081 55.1111 23.8171 55.1215 23.8998C55.1251 23.9286 55.1284 23.9543 55.1319 23.9754L55.1177 23.9809L55.1183 23.9845C54.8091 24.1022 54.5499 24.2019 54.2908 24.3015C54.2853 24.3037 54.2801 24.306 54.2752 24.3084C54.2686 24.3116 54.2625 24.3149 54.2567 24.3184C54.1839 24.3716 54.1963 24.4502 54.2772 24.4962C54.4636 24.6004 54.6591 24.7045 54.8637 24.7543L54.8972 24.7623C55.0755 24.8045 55.1658 24.8259 55.2057 24.8824C55.2465 24.9401 55.2349 25.0344 55.2114 25.2251L55.2092 25.2434C54.9864 27.0548 53.9998 28.4315 52.6814 29.6134C52.3754 29.886 52.0606 30.1443 51.7376 30.3894C50.4169 31.3946 48.9559 32.1792 47.4211 32.8286C44.6341 34.0061 41.7425 34.8348 38.7646 35.3737C38.2178 35.47 37.6711 35.5586 37.1279 35.6466L36.996 35.668C36.9231 35.6806 36.8502 35.6845 36.7696 35.6887C36.7346 35.6905 36.6981 35.6924 36.6596 35.6952C36.6939 35.5385 36.7285 35.3833 36.7629 35.2293C36.8606 34.7913 36.9562 34.3624 37.0369 33.9336C37.1091 33.5534 37.1693 33.1712 37.2294 32.7897L37.2297 32.788C37.2604 32.593 37.2911 32.3981 37.3234 32.2037C37.3097 32.1992 37.2972 32.1958 37.2847 32.1924C37.2741 32.1895 37.2635 32.1866 37.2522 32.183C37.1956 32.2654 37.1384 32.3485 37.0688 32.4482L37.0668 32.4405L37.0551 32.4573C37.0493 32.4333 37.0438 32.4107 37.0384 32.3892L37.0333 32.3688L37.0261 32.3405C37.0114 32.282 36.9982 32.2299 36.9869 32.1765C36.9778 32.172 36.9676 32.1686 36.9574 32.1652C36.95 32.1628 36.9425 32.1603 36.9355 32.1574C36.9158 32.1984 36.8938 32.239 36.8718 32.2797C36.8233 32.3693 36.7748 32.4588 36.7505 32.5524C36.6548 32.9418 36.5653 33.3328 36.4756 33.7243C36.412 34.0022 36.3483 34.2804 36.2822 34.5585C36.2312 34.7751 36.1755 34.9901 36.1196 35.2054C36.081 35.3545 36.0421 35.5045 36.0049 35.6544C35.9832 35.747 35.9447 35.808 35.8763 35.8403C35.8418 35.8597 35.7989 35.8714 35.7458 35.8763C34.9625 35.9326 34.1793 35.9914 33.396 36.0502C32.3516 36.1285 31.3071 36.2069 30.2627 36.2794C29.8127 36.309 29.3603 36.3195 28.9073 36.33C28.7379 36.3339 28.5682 36.3378 28.3987 36.3428C28.0713 36.3518 28.0668 36.3518 28.0622 36.0348C28.0568 35.6273 28.0528 35.2197 28.0488 34.8122C28.0428 34.2008 28.0368 33.5895 28.0258 32.9781C28.0225 32.7499 27.9991 32.5217 27.9762 32.2972C27.9682 32.2189 27.9602 32.1406 27.9531 32.0633C27.8524 32.053 27.7676 32.0426 27.6664 32.0302C27.6387 32.0268 27.6098 32.0233 27.5791 32.0195C27.572 32.0801 27.5633 32.1415 27.5546 32.2033C27.535 32.3416 27.5152 32.482 27.5121 32.6203C27.4951 33.4608 27.4857 34.3038 27.4763 35.1456C27.4732 35.4283 27.4701 35.7118 27.4666 35.9941C27.464 36.1858 27.4629 36.2694 27.4001 36.3041C27.356 36.3392 27.2733 36.338 27.1166 36.3337C24.6251 36.2612 22.1382 36.0937 19.6649 35.7676L19.663 35.7674C19.2648 35.7133 19.2601 35.7127 19.1648 35.3148C19.0848 34.9706 19.0062 34.6265 18.9276 34.2823C18.8098 33.766 18.6919 33.2498 18.5692 32.7336C18.5293 32.5656 18.459 32.4063 18.3542 32.2514C18.3472 32.2751 18.3391 32.2996 18.33 32.3271C18.3226 32.3498 18.3144 32.3747 18.3055 32.403L18.2978 32.393C18.2959 32.3992 18.2939 32.4055 18.2919 32.412C18.2535 32.3624 18.2177 32.3152 18.1828 32.2694C18.1393 32.2121 18.0974 32.157 18.0544 32.1021C18.0198 33.0352 18.227 33.93 18.4378 34.8406C18.4951 35.0877 18.5526 35.336 18.6056 35.5865L18.5895 35.5838L18.5919 35.5956C18.4416 35.5699 18.2944 35.5456 18.1494 35.5216C17.834 35.4695 17.5286 35.419 17.2234 35.3601C14.5228 34.8438 11.8813 34.1238 9.33076 33.1004C7.49399 32.3667 5.75269 31.4565 4.1887 30.2429C3.15211 29.4368 2.27919 28.4904 1.6154 27.3492C1.1653 26.5703 0.99708 25.7416 1.01981 24.8404C1.02431 24.84 1.02881 24.8395 1.0333 24.8391L1.03346 24.8313C1.09579 24.8255 1.15674 24.8216 1.21645 24.8178C1.344 24.8095 1.4659 24.8017 1.58358 24.777C1.74271 24.7453 1.90183 24.6864 2.04732 24.6094C2.04948 24.6083 2.05162 24.6071 2.05372 24.606C2.05603 24.6047 2.0583 24.6034 2.06054 24.6021C2.20589 24.5043 2.19647 24.3431 2.02458 24.2789C1.79886 24.1916 1.56565 24.1243 1.31201 24.051L1.31103 24.0507C1.22268 24.0252 1.13185 23.999 1.038 23.9709C1.04498 23.9362 1.05153 23.8954 1.0587 23.8508C1.07489 23.7501 1.09427 23.6297 1.12893 23.5135C1.47901 22.4041 2.11551 21.4712 2.92024 20.6379C3.60615 19.9286 4.36494 19.323 5.17281 18.7872C5.90583 18.2999 6.67942 17.8702 7.4758 17.4725C9.0898 16.6619 10.7811 16.046 12.5087 15.5253C14.2158 15.0132 15.9584 14.6601 17.702 14.3069C17.932 14.2603 18.162 14.2137 18.3919 14.1667C18.4067 14.1634 18.4215 14.1614 18.4374 14.1598C18.4568 14.157 18.4762 14.1562 18.4967 14.1553C18.5061 14.1549 18.5158 14.1545 18.5257 14.1539ZM35.1297 40.2113C35.4457 39.3474 35.7507 38.5137 36.0413 37.6696C36.1686 37.3254 36.2868 36.9722 36.3914 36.619C36.4414 36.4424 36.5323 36.3745 36.7187 36.3473C38.7964 36.0484 40.856 35.668 42.8792 35.0974C44.7614 34.5676 46.6027 33.92 48.3759 33.0958C50.4536 32.1267 52.3949 30.9493 53.9544 29.233C54.1289 29.0437 54.2756 28.831 54.4224 28.6182C54.4897 28.5205 54.5572 28.4228 54.6273 28.3273C54.6932 28.239 54.758 28.1496 54.8228 28.0601C54.8874 27.9709 54.9524 27.8811 55.0182 27.793C55.0229 27.7953 55.0275 27.7975 55.0322 27.7995L55.0334 27.8001L55.0371 27.8017L55.0406 27.8033C55.0468 27.8059 55.053 27.8085 55.0592 27.8111C55.0728 27.8167 55.0864 27.8224 55.1001 27.8292L55.0997 27.8316C55.1044 27.8337 55.109 27.8359 55.1137 27.8382C55.1061 27.885 55.0996 27.9322 55.093 27.9794C55.0799 28.074 55.0667 28.1688 55.0455 28.2594C54.4045 30.732 53.3724 33.0188 51.8357 35.0748C50.4354 36.9496 48.7578 38.5345 46.8664 39.9067C45.7707 40.7037 44.6341 41.4373 43.4202 42.0441C43.2747 42.1166 43.152 42.1302 42.9928 42.0849C40.7514 41.46 38.4691 41.0252 36.164 40.7173C36.0097 40.694 35.8568 40.6701 35.7048 40.6463C35.4997 40.6163 35.2949 40.5847 35.0889 40.5529L35.0867 40.5526L35.0092 40.5407C35.0496 40.4303 35.0897 40.3206 35.1297 40.2113ZM35.2253 9.63662C35.2018 9.58523 35.1781 9.5331 35.1547 9.47973C35.4272 9.43902 35.6984 9.39931 35.9683 9.35979C36.689 9.25425 37.4008 9.15002 38.1054 9.03141C39.783 8.7597 41.4379 8.38384 43.061 7.89023C43.467 7.76893 43.801 7.77891 44.1483 7.93713C44.2318 7.97483 44.3161 8.02104 44.4022 8.0759C45.8298 8.97707 47.2392 9.90088 48.5259 11.0013C50.3672 12.5727 51.8948 14.4022 53.1178 16.4808C53.8907 17.7986 54.4772 19.2069 54.8364 20.7013C54.8776 20.868 54.9319 21.0302 54.9861 21.1922C55.0276 21.3163 55.0692 21.4406 55.1046 21.5663C55.1259 21.6448 55.1349 21.7273 55.144 21.8098C55.1486 21.8511 55.1531 21.8923 55.1592 21.9331C55.1478 21.9376 55.1376 21.9433 55.1274 21.9489L55.1261 21.9496C55.1238 21.9509 55.1214 21.9522 55.119 21.9535C55.117 21.9546 55.1149 21.9557 55.1128 21.9568L55.1103 21.9581C55.1082 21.9592 55.106 21.9602 55.1038 21.9612L55.101 21.9625L55.0991 21.9633L55.0955 21.9648C55.0937 21.9628 55.0917 21.9608 55.0898 21.9589L55.0886 21.9594L55.0864 21.9603C55.0566 21.9274 55.0235 21.8962 54.9903 21.8649C54.9275 21.8056 54.8644 21.7461 54.8228 21.675C53.8316 19.9994 52.3313 18.8673 50.7082 17.8665C50.1357 17.5126 49.5501 17.1897 48.9537 16.8925C47.118 15.9789 45.1794 15.3085 43.202 14.7283C41.0697 14.1033 38.8919 13.6912 36.696 13.3607C36.6498 13.3543 36.6134 13.3425 36.584 13.3259C36.504 13.2845 36.4752 13.2093 36.4414 13.1116C36.0913 12.07 35.7321 11.0285 35.3729 9.98692C35.3317 9.87 35.2794 9.75528 35.2253 9.63662ZM1.48244 28.3051C1.46577 28.3118 1.44911 28.3185 1.43244 28.3289C1.42674 28.3316 1.42105 28.3341 1.41536 28.3364L1.416 28.3404C1.41702 28.3453 1.41737 28.3506 1.41832 28.3555C1.42011 28.3674 1.42185 28.3793 1.42359 28.3912C1.42977 28.4337 1.43602 28.4765 1.44492 28.5182C1.4502 28.5457 1.45661 28.5729 1.46537 28.599C1.53022 28.7977 1.59375 28.997 1.6573 29.1963C1.82987 29.7377 2.00253 30.2794 2.2019 30.8089C2.8475 32.5162 3.80226 34.0559 4.9116 35.4959C5.95729 36.8545 7.18029 38.0455 8.52149 39.1142C9.89453 40.2056 11.3403 41.1973 12.9179 41.9898C12.9907 42.026 13.0952 42.0622 13.168 42.0396C15.1593 41.4735 17.1962 41.1113 19.2375 40.7897C19.5 40.75 19.7648 40.7055 20.0375 40.6596C20.1379 40.6427 20.2395 40.6257 20.3423 40.6086L20.3404 40.6044L20.3423 40.6041C20.3112 40.5359 20.2801 40.4726 20.2503 40.4118C20.1929 40.2948 20.1402 40.1875 20.1014 40.0742C19.899 39.5077 19.6976 38.9412 19.4977 38.3746C19.3428 37.9345 19.1886 37.4943 19.0346 37.0541C18.9641 36.8517 18.8938 36.6493 18.8238 36.4469C18.7738 36.3065 18.7192 36.2295 18.5556 36.2024C18.4772 36.1888 18.3989 36.1752 18.3206 36.1616L18.285 36.1554C17.4121 36.004 16.5426 35.8531 15.6731 35.6725C12.7997 35.0702 10.0218 34.1781 7.38033 32.9056C5.96183 32.2218 4.60244 31.4293 3.40217 30.3878C3.35703 30.3484 3.3118 30.309 3.26655 30.2697C2.71923 29.7937 2.1703 29.3163 1.78817 28.6805C1.72694 28.5789 1.64535 28.4874 1.56434 28.3965C1.53709 28.366 1.50988 28.3355 1.48356 28.3047L1.48244 28.3051ZM20.1407 9.37525L20.1423 9.37105C20.1054 9.3637 20.073 9.35636 20.0433 9.34962C19.9998 9.33975 19.9619 9.33114 19.924 9.32576C19.7447 9.2992 19.565 9.27297 19.3851 9.24671L19.3841 9.24656C18.8897 9.17438 18.394 9.102 17.9009 9.02235C16.2005 8.75517 14.5274 8.36572 12.877 7.87212C12.6497 7.80419 12.4496 7.79966 12.2314 7.93098C10.3946 9.04499 8.63061 10.2405 7.06662 11.7259C5.48445 13.2293 4.16143 14.9185 3.11119 16.8249C2.42922 18.0612 1.9382 19.3745 1.54266 20.724C1.52682 20.7803 1.51098 20.8361 1.49514 20.8915C1.47915 20.9465 1.46317 21.0017 1.44718 21.0568C1.41536 21.1666 1.38353 21.2765 1.35171 21.3851L1.43354 21.4259C1.45565 21.4005 1.47839 21.3764 1.50105 21.3523C1.53898 21.312 1.5767 21.272 1.61085 21.2266C2.11097 20.5474 2.67928 19.936 3.32487 19.3926C4.91159 18.0522 6.69836 17.0423 8.60787 16.2453C11.7859 14.9185 15.0911 14.0218 18.501 13.5191C18.6465 13.4965 18.7238 13.4422 18.7692 13.2973C19.0648 12.4006 19.3603 11.5085 19.6694 10.6164C19.7675 10.3296 19.8788 10.0471 19.9926 9.75841C20.0423 9.63233 20.0925 9.50495 20.1423 9.37558L20.1407 9.37525ZM19.5374 36.6809C19.5654 36.7721 19.5928 36.8613 19.6207 36.9488C19.6551 37.0579 19.6903 37.1651 19.7285 37.2711C19.9172 37.7805 20.1093 38.2877 20.3014 38.7949C20.4935 39.3021 20.6856 39.8093 20.8743 40.3188C20.9515 40.5271 21.0743 40.5724 21.2925 40.5452C23.2475 40.3097 25.2116 40.1648 27.1802 40.1739C27.4257 40.1739 27.4712 40.0878 27.4666 39.875V39.8705C27.4654 39.751 27.4643 39.6315 27.4636 39.5119C27.4601 38.989 27.4608 38.4663 27.4615 37.9449V37.9402C27.4618 37.726 27.4621 37.512 27.4621 37.2983V37.2937C27.4621 37.1164 27.4621 37.0303 27.4189 36.9858C27.3781 36.9438 27.2989 36.9389 27.145 36.9293C27.1329 36.9285 27.1204 36.9278 27.1075 36.9269C25.0979 36.8047 23.0929 36.6824 21.0834 36.5465C20.7535 36.5243 20.4254 36.4849 20.0874 36.442C20.0574 36.4382 20.0273 36.4343 19.9971 36.4305L19.9958 36.4303C19.8144 36.407 19.6285 36.3832 19.4376 36.3609C19.4728 36.4708 19.5056 36.5773 19.5374 36.6809ZM34.84 8.7428C34.8602 8.76907 34.8805 8.78787 34.9041 8.80073C34.9719 8.83765 35.0666 8.82559 35.2602 8.80093L35.2638 8.80046C37.678 8.49252 40.0649 8.03967 42.42 7.44191C42.5307 7.4125 42.6384 7.3801 42.748 7.34715C42.7629 7.34269 42.7777 7.33821 42.7927 7.33374L42.8246 7.32417C42.8292 7.29247 42.8337 7.26077 42.8428 7.2336L42.8379 7.23139L42.8383 7.22907C41.0697 6.42753 39.2647 5.72561 37.387 5.21389C35.5093 4.70217 33.5953 4.36253 31.6267 4.16328C31.6423 4.1804 31.6558 4.19538 31.6676 4.20859C31.6902 4.2337 31.7073 4.25262 31.7221 4.26743L31.7229 4.26812L31.7267 4.27196C31.7892 4.33133 31.8508 4.39128 31.9117 4.45179C33.0923 5.62754 33.9661 7.01757 34.7046 8.50158L34.7102 8.51273C34.765 8.62191 34.8018 8.6953 34.84 8.7428ZM21.2238 8.8397C21.1967 8.83323 21.1673 8.82624 21.1347 8.81915C21.1269 8.81745 21.1189 8.81575 21.1107 8.81404C21.1558 8.72783 21.1993 8.64369 21.2418 8.56123C21.3316 8.38722 21.4179 8.21998 21.5081 8.05743C21.5301 8.01658 21.5521 7.97596 21.5744 7.93552C22.2973 6.61772 23.1793 5.41315 24.3159 4.41235C24.4751 4.27196 24.6433 4.18592 24.8615 4.17234C25.648 4.12252 26.4346 4.06818 27.2166 4.00931C27.4121 3.99573 27.4803 4.06365 27.4803 4.26291L27.4803 4.26404L27.4803 4.26743C27.4742 5.29668 27.4722 6.32794 27.4702 7.35853C27.4692 7.87417 27.4682 8.38964 27.4666 8.90461C27.4666 9.09882 27.4661 9.17404 27.3917 9.20213C27.3454 9.22161 27.2694 9.22161 27.1438 9.22161C25.2116 9.21255 23.2884 9.05858 21.3653 8.86838C21.3209 8.86286 21.2764 8.85226 21.2238 8.8397ZM28.0986 36.9405C30.6446 36.9179 33.1952 36.7956 35.814 36.465C35.755 36.638 35.6979 36.8075 35.6417 36.9742C35.5961 37.1094 35.551 37.2432 35.5063 37.3749C35.3771 37.7564 35.2498 38.1258 35.1138 38.4938C34.994 38.8189 34.8627 39.1397 34.7312 39.461C34.6283 39.7125 34.5251 39.9647 34.4273 40.2192C34.3545 40.4093 34.2591 40.4727 34.0408 40.4501C32.1313 40.2735 30.2218 40.1422 28.3032 40.1512C28.222 40.1512 28.153 40.1495 28.1118 40.106C28.0833 40.0791 28.0668 40.0347 28.0668 39.961C28.0736 39.2308 28.0727 38.5007 28.0719 37.7705C28.0716 37.527 28.0713 37.2836 28.0713 37.0401C28.0713 37.0264 28.0765 37.0102 28.0869 36.9776C28.0903 36.9671 28.0942 36.9549 28.0986 36.9405ZM19.5268 13.3434C19.49 13.3454 19.4493 13.3476 19.4017 13.3516C19.4387 13.2352 19.4735 13.121 19.5084 13.0087L19.5089 13.0068C19.6067 12.6915 19.6999 12.3905 19.8104 12.0972C20.0104 11.5538 20.2185 11.0144 20.4267 10.4751C20.5307 10.2053 20.6348 9.93562 20.7379 9.6654C20.7997 9.50256 20.8959 9.45093 21.0682 9.46894C21.0747 9.46943 21.0813 9.47001 21.0879 9.47067C23.1384 9.67898 25.1889 9.85107 27.253 9.86465C27.4212 9.86465 27.4712 9.92352 27.4712 10.0911L27.4712 10.0961C27.4666 10.9186 27.4621 11.7366 27.4712 12.5591C27.4712 12.7448 27.4075 12.8036 27.2211 12.8036C25.1161 12.8218 23.0156 12.9531 20.9197 13.175C20.6092 13.2082 20.3011 13.2488 19.9918 13.2896C19.8801 13.3043 19.768 13.3191 19.6558 13.3335C19.615 13.3386 19.5741 13.3408 19.5268 13.3434ZM34.1553 8.91751C33.9324 8.93684 33.7133 8.95838 33.4966 8.97967L33.4143 8.98775C33.0038 9.02802 32.6016 9.06628 32.1995 9.08575L32.1844 9.0865C31.4555 9.12238 30.7251 9.14663 29.9941 9.17091L29.9926 9.17096C29.4508 9.18895 28.9087 9.20695 28.3665 9.22972L28.3441 9.23066C28.3412 9.23078 28.3383 9.23089 28.3355 9.23098C28.1198 9.23793 28.0623 9.1689 28.0668 8.9499C28.0759 7.38757 28.0713 5.82976 28.0622 4.26743C28.0577 4.06827 28.1168 3.99573 28.3123 4.00025C28.4896 4.0061 28.6673 4.01105 28.8451 4.01571C28.926 4.01783 29.0068 4.01989 29.0877 4.02195C29.5175 4.0329 29.9478 4.04386 30.3763 4.06365C30.4945 4.06818 30.6264 4.1361 30.7173 4.21308C31.7812 5.09613 32.6451 6.14676 33.3452 7.33322C33.3689 7.37304 33.3924 7.41295 33.4157 7.45295C33.5671 7.71295 33.7113 7.97666 33.855 8.24098L33.8882 8.30198C33.9704 8.45312 34.0527 8.60437 34.1363 8.75517C34.1465 8.77554 34.1553 8.79884 34.1667 8.82895C34.1751 8.85102 34.1848 8.87678 34.1975 8.90782L34.2 8.91367C34.1851 8.91494 34.1702 8.91622 34.1553 8.91751ZM34.5728 9.70616C34.5279 9.59228 34.4756 9.52954 34.3502 9.53106C34.3333 9.53084 34.3151 9.53184 34.2954 9.53407C32.3041 9.75144 30.3082 9.8556 28.3077 9.86918C28.2495 9.86918 28.1913 9.87498 28.1215 9.88193C28.1042 9.88365 28.0856 9.88551 28.0668 9.88729V12.4595C28.0668 12.6157 28.0668 12.6928 28.1054 12.7323C28.143 12.7708 28.2172 12.7739 28.3634 12.7799L28.3896 12.781C30.4037 12.8761 32.4132 12.9712 34.4227 13.0799C34.7346 13.0951 35.0423 13.1329 35.3653 13.1725C35.5221 13.1917 35.6826 13.2114 35.8489 13.2292L35.8503 13.2293C35.8459 13.2163 35.8415 13.2034 35.8372 13.1905C35.7339 12.8855 35.6466 12.6204 35.5594 12.3554C35.3957 11.9139 35.2309 11.4723 35.0661 11.0307C34.9012 10.5892 34.7364 10.1477 34.5728 9.70616ZM33.0425 45.2503C32.5814 45.3111 32.1171 45.3624 31.6494 45.4043C31.6706 45.3798 31.6896 45.3573 31.7072 45.3364C31.7291 45.3104 31.7491 45.2868 31.7682 45.2654C31.7946 45.2339 31.8184 45.2068 31.8449 45.1824C32.7133 44.408 33.3452 43.4525 33.9454 42.4698C34.1393 42.1517 34.3204 41.8273 34.5022 41.5018L34.5055 41.4958C34.54 41.4341 34.5745 41.3723 34.6091 41.3105C34.6659 41.2136 34.7263 41.1563 34.8354 41.1579C34.8514 41.1576 34.8684 41.1587 34.8865 41.1611C36.1498 41.3442 37.4132 41.5274 38.6693 41.7486C39.8045 41.9486 40.9337 42.1796 42.0517 42.4698C42.129 42.4925 42.2063 42.5196 42.329 42.5649C39.3414 43.9359 36.2703 44.825 33.0425 45.2503ZM27.1711 45.5899C27.322 45.6017 27.3997 45.5752 27.4356 45.4916C27.4565 45.4463 27.4637 45.3836 27.4621 45.3001C27.4598 44.9492 27.4581 44.5982 27.457 44.2472C27.454 43.3354 27.4549 42.4235 27.4596 41.5116C27.4603 41.3721 27.4612 41.2326 27.4621 41.0931C27.4639 41.0051 27.4542 40.9413 27.4283 40.8969C27.3892 40.8241 27.3127 40.7994 27.1802 40.8078C26.8991 40.82 26.6174 40.8288 26.3355 40.8376L26.3329 40.8378C25.8815 40.8519 25.4297 40.8661 24.9797 40.8939C24.2633 40.9395 23.5485 40.9915 22.8239 41.0441C22.3254 41.0804 21.8222 41.1169 21.3107 41.152C21.3257 41.1848 21.3377 41.2123 21.3481 41.2359C21.3691 41.284 21.3834 41.3164 21.4016 41.3467C21.4785 41.4752 21.5548 41.604 21.6311 41.7326C21.8477 42.0983 22.0641 42.4635 22.2927 42.8185C22.8974 43.7559 23.6021 44.6073 24.4841 45.3046C24.5569 45.3635 24.6569 45.4043 24.7478 45.4133C25.1067 45.4414 25.4646 45.466 25.8224 45.4905C26.2715 45.5213 26.7208 45.5521 27.1711 45.5899ZM33.7536 41.0852C33.8008 41.0919 33.8494 41.0998 33.9012 41.1083C33.9146 41.1104 33.9282 41.1127 33.942 41.1149C33.9623 41.1182 33.9831 41.1215 34.0045 41.1248C33.561 41.9369 33.0918 42.7139 32.5544 43.4315C32.033 44.1285 31.4481 44.7697 30.7628 45.3318C30.6401 45.436 30.4628 45.522 30.3036 45.5311C29.8362 45.5596 29.3643 45.5726 28.8927 45.5856C28.6902 45.5912 28.4871 45.5967 28.285 45.6035C28.1395 45.6081 28.085 45.5582 28.085 45.4088L28.085 45.1337C28.0849 43.8387 28.0844 42.547 28.0773 41.2555C28.0771 41.2294 28.077 41.2033 28.0768 41.1771C28.0765 41.1235 28.0762 41.0698 28.0759 41.0162L28.0759 41.0131L28.0759 41.0116C28.0759 40.8169 28.1804 40.8078 28.3168 40.8124C28.6775 40.8229 29.0382 40.832 29.3989 40.8411C30.1201 40.8592 30.8418 40.8773 31.563 40.9075C32.0383 40.9294 32.5136 40.9709 32.9889 41.0124C33.2001 41.0308 33.4113 41.0493 33.6226 41.066C33.6658 41.0709 33.709 41.0777 33.7536 41.0852ZM13.4635 7.38304C16.596 5.76184 19.9149 4.82444 23.4203 4.31272C23.1974 4.5791 23.0049 4.8066 22.8089 5.03733L22.7966 5.05182C21.9112 6.09423 21.1886 7.24179 20.5854 8.46433C20.5796 8.47613 20.5738 8.48794 20.568 8.49975C20.564 8.50791 20.56 8.51606 20.556 8.52422C20.5191 8.60159 20.4813 8.65512 20.4345 8.68878C20.372 8.73589 20.2943 8.74633 20.1786 8.728C18.289 8.45459 16.4098 8.13611 14.5563 7.67851C14.2915 7.61314 14.0273 7.54493 13.7636 7.47361C13.6636 7.44644 13.5635 7.41473 13.4635 7.38304ZM22.311 45.0795C19.4139 44.6175 16.6357 43.7643 13.9764 42.4626L13.9727 42.4608C14.0619 42.4382 14.1518 42.4149 14.241 42.3918C14.4118 42.3476 14.5826 42.3034 14.7535 42.2627C14.7615 42.2608 14.7694 42.2589 14.7774 42.257C16.6415 41.8268 18.5283 41.546 20.4151 41.2652C20.6015 41.2381 20.6651 41.3196 20.7424 41.4599C20.7512 41.4757 20.7599 41.4914 20.7687 41.5072C21.3697 42.5867 21.9953 43.6514 22.8151 44.5886C22.8712 44.6511 22.9286 44.7131 22.9855 44.7744C23.1221 44.9218 23.2587 45.0691 23.3839 45.2322C23.0245 45.1871 22.6669 45.1363 22.311 45.0795Z" fill="#F4C430"/>
<path d="M48.5623 5.29087C48.5623 4.93765 48.5668 4.5799 48.5623 4.22668C48.5577 4.04554 48.6077 3.94138 48.7896 3.92327C49.3352 3.87346 49.8807 3.83723 50.399 4.06365C50.831 4.24932 50.9082 4.87425 50.5445 5.16861C50.2808 5.38597 50.299 5.36786 50.5082 5.6441C50.6991 5.89316 50.8446 6.17846 50.981 6.45923C51.0674 6.64037 50.9855 6.74905 50.7855 6.77169C50.5582 6.79886 50.3718 6.73999 50.2581 6.51357C50.1308 6.27356 49.9899 6.0426 49.8444 5.81165C49.7944 5.73467 49.7125 5.65768 49.6261 5.62598C49.4352 5.549 49.3215 5.63504 49.3215 5.84335C49.3215 6.03808 49.3443 6.23733 49.3261 6.43205C49.3079 6.69018 49.1897 6.78075 48.9396 6.77622C48.685 6.77169 48.5805 6.69018 48.5668 6.423C48.5532 6.04713 48.5623 5.66674 48.5623 5.29087C48.5714 5.29087 48.5577 5.29993 48.5623 5.29087ZM49.2988 4.8018C49.2897 5.07804 49.3443 5.13238 49.6171 5.14143C49.8853 5.14596 50.0399 5.01011 50.049 4.76557C50.0535 4.55273 49.9171 4.44405 49.6261 4.43499C49.3397 4.4214 49.3079 4.45763 49.2988 4.8018Z" fill="#F4C430"/>
<path d="M28.2532 23.2192C28.335 23.1286 28.4487 22.9973 28.5669 22.875C29.4853 21.9421 30.4218 21.0274 31.3175 20.0764C31.5812 19.7956 31.8312 19.6824 32.2086 19.6915C33.3907 19.7141 34.5728 19.7005 35.773 19.7005C35.773 23.2418 35.773 26.7741 35.773 30.3244C34.3136 30.3244 32.8815 30.3244 31.4312 30.3244C31.4312 28.2322 31.4312 26.1401 31.4312 24.0434C31.4175 24.0253 31.4039 24.0117 31.3857 23.9936C30.3309 24.9989 29.2625 25.9861 28.2123 27.0458C27.1211 26.0133 26.0436 24.9853 24.9388 23.9392C24.9297 23.989 24.9206 24.0162 24.9206 24.0388C24.9297 26.0812 24.9388 28.1281 24.957 30.1704C24.957 30.3561 24.8479 30.3335 24.7342 30.3335C23.5612 30.3335 22.3837 30.3289 21.2107 30.3289C21.0243 30.3289 20.8379 30.3289 20.6287 30.3289C20.6287 30.1931 20.6287 30.0799 20.6287 29.9712C20.6196 26.6427 20.6151 23.3143 20.606 19.9904C20.606 19.687 20.6015 19.6915 20.897 19.6915C22.0245 19.6915 23.1566 19.696 24.2841 19.6824C24.5342 19.6779 24.7069 19.7322 24.8933 19.927C25.6708 20.7421 26.4755 21.5255 27.2802 22.318C27.5803 22.6169 27.8986 22.8931 28.2532 23.2192Z" fill="#F4C430"/>
<path d="M38.7783 30.3561C38.7783 30.2293 38.7783 30.1433 38.7783 30.0527C38.7737 27.6164 38.7692 25.18 38.7601 22.7392C38.7601 22.5943 38.7828 22.5354 38.9374 22.5354C40.2922 22.5444 41.6516 22.5444 43.0065 22.549C43.0565 22.549 43.1065 22.5626 43.1792 22.5716C43.1792 22.6803 43.1792 22.7754 43.1792 22.8705C43.1701 24.4419 43.161 26.0087 43.152 27.5801C43.152 27.879 43.152 27.8835 43.4338 27.8473C44.8251 27.6707 46.1117 27.2495 47.1301 26.2306C47.7894 25.574 48.1213 24.777 48.0394 23.8351C47.9758 23.0969 47.5211 22.6486 46.8801 22.4086C46.4572 22.2501 45.989 22.1278 45.5389 22.1188C43.4338 22.0916 41.3288 22.1097 39.2193 22.1097C38.8283 22.1097 38.4327 22.1097 38.0235 22.1097C38.0417 22.0418 38.0508 21.9784 38.0781 21.9195C38.36 21.2357 38.6464 20.5564 38.9237 19.8681C38.9692 19.7549 39.0147 19.696 39.1465 19.696C41.4879 19.7141 43.8294 19.7096 46.1663 19.7458C47.3984 19.7639 48.6123 19.9904 49.7716 20.4115C50.6445 20.7285 51.4174 21.2176 51.9085 22.0463C52.4813 23.0245 52.5268 24.066 52.2358 25.1347C51.8448 26.5793 50.8537 27.562 49.667 28.3907C48.2758 29.3598 46.6982 29.8263 45.0478 30.1116C43.9658 30.2972 42.8792 30.3516 41.788 30.3516C40.8787 30.3516 39.9694 30.3561 39.0601 30.3561C38.9783 30.3561 38.8919 30.3561 38.7783 30.3561Z" fill="#F4C430"/>
<path d="M11.8268 25.3838C11.8268 24.614 11.8268 23.8577 11.8268 23.0788C13.7863 23.0788 15.7413 23.0788 17.7372 23.0788C17.7372 23.1739 17.7372 23.2599 17.7372 23.346C17.7372 25.6102 17.7326 27.8745 17.7326 30.1342C17.7326 30.2655 17.7235 30.3516 17.5553 30.347C15.9186 30.3108 14.2819 30.347 12.6497 30.2293C11.0993 30.1161 9.56718 29.8263 8.14413 29.1425C6.73473 28.4632 5.51173 27.5394 4.72064 26.1718C4.18416 25.2479 3.90228 24.2336 4.13415 23.1513C4.32964 22.232 4.78429 21.4802 5.59811 20.9504C6.41647 20.4206 7.32577 20.1534 8.26689 19.9677C9.48534 19.7277 10.7174 19.696 11.9541 19.696C13.3953 19.6915 14.832 19.696 16.2732 19.687C16.4869 19.687 16.5733 19.7504 16.6551 19.9587C16.9143 20.6244 17.2189 21.2719 17.5053 21.9286C17.5235 21.9693 17.5371 22.0101 17.5599 22.0825C17.4326 22.0871 17.3235 22.1006 17.2143 22.1006C15.3366 22.1052 13.459 22.1006 11.5767 22.1052C10.9402 22.1052 10.3083 22.1595 9.69903 22.3859C8.7079 22.7527 8.23961 23.5543 8.47148 24.5868C8.66243 25.4336 9.11253 26.1129 9.83087 26.6291C10.722 27.2767 11.7495 27.5348 12.7997 27.7522C12.9725 27.7884 13.1453 27.8111 13.3135 27.8473C13.4635 27.879 13.5408 27.8382 13.5362 27.6662C13.5317 26.9642 13.5272 26.2623 13.5317 25.5604C13.5317 25.4064 13.4635 25.3657 13.3226 25.3657C12.8906 25.3702 12.4587 25.3747 12.0268 25.3747C11.9723 25.3838 11.9086 25.3838 11.8268 25.3838Z" fill="#F4C430"/>
</g>
</svg>
